# xmcd CD database file
# Copyright (C) 1993-1998 Ti Kan
# 
# Track frame offsets:
#     182
#     9905
#     21407
#     31100
#     43212
#     53637
#     67675
#     79737
#     93817
#     103465
#     112940
#     123077
#     131905
#     143437
#     151840
#     161342
#     172402
#     183207
#     194447
#     204772
#     216312
#     227090
#     236480
#     249697
#     259155
#     269262
#     280310
#     292007
#     304387
# 
# Disc length: 4187 seconds
# 
# Revision: 1
# Processed by: cddbd v1.4b41PL1 Copyright (c) Steve Scherf et al.
# Submitted via: DiscPlay 4.0.4
# 
DISCID=9710591d
DTITLE=Charlie Rich - The Complete Smash Sessions
DYEAR=1900
DGENRE=
TTITLE0=Dance Of Love
TTITLE1=Man About Town
TTITLE2=Mohair Sam
TTITLE3=I Washed My Hands In Muddy Water
TTITLE4=Down And Out
TTITLE5=I Can't Go On
TTITLE6=The Best Years
TTITLE7=A Field Of Yellow Daisies
TTITLE8=Something Just Came Over me
TTITLE9=When My Baby Comes Home
TTITLE10=She's A Yum Yum
TTITLE11=Double Dog Dare me
TTITLE12=Just A Little Bit Of You
TTITLE13=Santa Claus' Daughter
TTITLE14=Just A Little Bit Of Time
TTITLE15=Hawg Jaw
TTITLE16=Moonshine Minnie
TTITLE17=Have I Stayed Away Too Long
TTITLE18=It Ain't Gonna Be That Way
TTITLE19=That#s My Way
TTITLE20=Everything I Do Is Wrong
TTITLE21=Party Girl
TTITLE22=You Can Have Her
TTITLE23=Lonely Weekends
TTITLE24=Blowin' Town
TTITLE25=Tears A Go-Go
TTITLE26=No Home
TTITLE27=So Long
TTITLE28=Let The Party Roll On
EXTD=
EXTT0=
EXTT1=
EXTT2=
EXTT3=
EXTT4=
EXTT5=
EXTT6=
EXTT7=
EXTT8=
EXTT9=
EXTT10=
EXTT11=
EXTT12=
EXTT13=
EXTT14=
EXTT15=
EXTT16=
EXTT17=
EXTT18=
EXTT19=
EXTT20=
EXTT21=
EXTT22=
EXTT23=
EXTT24=
EXTT25=
EXTT26=
EXTT27=
EXTT28=
PLAYORDER=
